<svg width="16" height="16" viewBox="0 0 16 16" fill="none" xmlns="http://www.w3.org/2000/svg">
<path fill-rule="evenodd" clip-rule="evenodd" d="M0 0.00146484H3.3755V15.4114H0V0.00146484Z" fill="#5AB39D"/>
<path fill-rule="evenodd" clip-rule="evenodd" d="M3.31348 0.00146484H15.4442V15.4114H3.31348V0.00146484Z" fill="#366A74"/>
<path fill-rule="evenodd" clip-rule="evenodd" d="M7.43885 10.4304L3.31324 2.39709L0 2.36745C0.234224 2.5824 0.490685 2.71433 0.705638 2.95894C1.64698 4.0337 3.2999 7.51001 4.05297 8.86198C4.67708 9.9827 5.2493 11.1583 5.87785 12.2657L7.41365 15.4084C9.19405 12.8408 6.99857 11.8239 8.79972 8.46469C9.95602 6.30923 11.9706 6.05277 13.5183 4.4725C14.6183 3.25691 15.1697 1.59955 14.3366 0C13.9882 2.22661 12.2108 3.92252 10.5786 5.21075C8.90942 6.48416 7.55151 7.70124 7.43737 10.4289L7.43885 10.4304Z" fill="#FEFEFE"/>
<path fill-rule="evenodd" clip-rule="evenodd" d="M8.80572 12.8024C7.82583 9.28164 10.426 7.33224 13.3138 5.62448C14.1232 5.05967 14.8007 4.42964 15.0171 3.56982C15.5167 6.14036 14.3278 7.479 12.3398 8.55228C10.7418 9.36169 9.58103 10.6662 8.80572 12.8024Z" fill="#FCEE60"/>
<path fill-rule="evenodd" clip-rule="evenodd" d="M9.27393 13.6327C9.3777 11.6937 11.127 10.0748 12.7191 9.11867C13.4766 8.66356 14.0266 8.3478 14.5499 7.59473C14.4269 9.35734 13.8813 10.6975 12.433 11.329C11.4694 11.9116 10.2568 12.2555 9.27393 13.6327Z" fill="#FCEE60"/>
</svg>
