<?xml version="1.0" encoding="UTF-8"?> <!-- Creator: CorelDRAW --> <svg xmlns="http://www.w3.org/2000/svg" xmlns:xlink="http://www.w3.org/1999/xlink" xmlns:xodm="http://www.corel.com/coreldraw/odm/2003" xml:space="preserve" width="25.0387mm" height="4.0772mm" style="shape-rendering:geometricPrecision; text-rendering:geometricPrecision; image-rendering:optimizeQuality; fill-rule:evenodd; clip-rule:evenodd" viewBox="0 0 638.34 103.95"> <defs> <style type="text/css"> <![CDATA[ .fil2 {fill:#FEFEFE} .fil3 {fill:#FCEE60} .fil1 {fill:#366A74} .fil0 {fill:#5AB39D} .fil4 {fill:white;fill-rule:nonzero} ]]> </style> </defs> <g id="Слой_x0020_1"> <metadata id="CorelCorpID_0Corel-Layer"></metadata> <g id="_2013588081504"> <g> <polygon class="fil0" points="-0,0 22.77,0 22.77,103.95 -0,103.95 "></polygon> <polygon class="fil1" points="22.35,0 104.18,0 104.18,103.95 22.35,103.95 "></polygon> <path class="fil2" d="M50.18 70.35l-27.83 -54.19 -22.35 -0.2c1.58,1.45 3.31,2.34 4.76,3.99 6.35,7.25 17.5,30.7 22.58,39.82 4.21,7.56 8.07,15.49 12.31,22.96l10.36 21.2c12.01,-17.32 -2.8,-24.18 9.35,-46.84 7.8,-14.54 21.39,-16.27 31.83,-26.93 7.42,-8.2 11.14,-19.38 5.52,-30.17 -2.35,15.02 -14.34,26.46 -25.35,35.15 -11.26,8.59 -20.42,16.8 -21.19,35.2z"></path> <path class="fil3" d="M59.4 86.35c-6.61,-23.75 10.93,-36.9 30.41,-48.42 5.46,-3.81 10.03,-8.06 11.49,-13.86 3.37,17.34 -4.65,26.37 -18.06,33.61 -10.78,5.46 -18.61,14.26 -23.84,28.67z"></path> <path class="fil3" d="M62.56 91.95c0.7,-13.08 12.5,-24 23.24,-30.45 5.11,-3.07 8.82,-5.2 12.35,-10.28 -0.83,11.89 -4.51,20.93 -14.28,25.19 -6.5,3.93 -14.68,6.25 -21.31,15.54z"></path> </g> <path class="fil4" d="M165.67 30.65l-6.86 0 -7.32 21.76 -8.29 -21.76 -6.96 0 11.03 25.68 2.24 0c-1.58,3.61 -3.61,4.83 -8.13,5.54l0.92 4.68c7.27,-0.86 10.72,-3.2 13.62,-10.78l9.76 -25.12zm17.23 7.47c-2.9,0 -5.74,1.27 -7.88,4.07l-0.36 -3.3 -5.69 0 0 37.98 6.51 -0.71 0 -12.56c1.67,1.98 4.02,2.95 6.76,2.95 6.81,0 10.62,-6.05 10.62,-14.29 0,-8.59 -2.95,-14.13 -9.96,-14.13zm-2.49 23.44c-2.03,0 -3.66,-0.92 -4.93,-2.8l0 -12.1c1.27,-2.08 3.2,-3.66 5.49,-3.66 3.25,0 5.08,2.49 5.08,9.31 0,6.51 -2.08,9.25 -5.64,9.25zm38.22 -2.9l0 -11.29c0,-5.95 -3.15,-9.25 -10.32,-9.25 -3.05,0 -6.45,0.66 -9.76,1.93l1.52 4.42c2.69,-0.92 5.29,-1.43 7.12,-1.43 3.45,0 5.03,1.17 5.03,4.68l0 1.52 -3.35 0c-7.83,0 -12.25,3.15 -12.25,9 0,4.88 3.3,8.29 8.69,8.29 3.2,0 6.15,-1.17 8.03,-4.02 1.07,2.59 3,3.66 5.95,3.91l1.37 -4.32c-1.32,-0.51 -2.03,-1.27 -2.03,-3.46zm-11.59 3.15c-2.49,0 -3.81,-1.47 -3.81,-4.07 0,-3.15 2.08,-4.68 6.3,-4.68l2.69 0 0 5.44c-1.22,2.14 -2.9,3.3 -5.18,3.3zm21.86 -22.93l-0.91 11.69c-0.66,8.54 -0.97,9.66 -4.17,10.98l1.63 4.83c6.77,-1.73 7.73,-4.88 8.65,-15.36l0.66 -7.22 6.54 0 0 21.96 6.51 0 0 -26.9 -18.9 0zm35.88 8.49l-2.64 0 0 -8.49 -6.51 0 0 26.9 10.22 0c6.05,0 11.03,-2.9 11.03,-9.2 0,-5.74 -3.4,-9.2 -12.09,-9.2zm0.41 13.88l-3.05 0 0 -9.46 2.59 0c4.07,0 5.39,1.63 5.39,4.68 0,3.46 -1.93,4.78 -4.93,4.78zm27.65 -23.13c-7.72,0 -12.55,5.85 -12.55,14.44 0,8.59 4.83,13.98 12.6,13.98 3.46,0 6.25,-1.12 8.69,-3.1l-2.9 -4.12c-1.98,1.27 -3.41,1.93 -5.44,1.93 -3.66,0 -6.05,-2.29 -6.05,-8.8 0,-6.46 2.29,-9.2 6.05,-9.2 2.03,0 3.66,0.61 5.44,1.93l2.9 -3.92c-2.54,-2.18 -5.23,-3.15 -8.74,-3.15zm35.78 0.76l-6.51 0 -6.25 10.63 -3.05 0 0 -10.63 -6.51 0 0 26.9 6.51 0 0 -11.95 2.9 0 6.56 11.95 7.17 0 -8.39 -14.44 7.57 -12.46zm27.29 0l-7.06 0 -9.91 20.23c0.35,-1.37 0.86,-5.44 0.86,-9.46l0 -10.78 -6.3 0 0 26.9 6.96 0 10.01 -20.29c-0.31,1.37 -0.81,5.13 -0.81,9.51l0 10.78 6.25 0 0 -26.9zm19.01 -5.49c4.78,0 7.93,-2.75 8.34,-6.97l-3.86 -0.76c-0.61,2.18 -2.13,3.05 -4.47,3.05 -2.34,0 -3.76,-0.86 -4.42,-3.05l-3.81 0.76c0.41,4.22 3.46,6.97 8.23,6.97zm11.23 5.49l-7.06 0 -9.91 20.23c0.36,-1.37 0.86,-5.44 0.86,-9.46l0 -10.78 -6.3 0 0 26.9 6.96 0 10.01 -20.29c-0.31,1.37 -0.81,5.13 -0.81,9.51l0 10.78 6.25 0 0 -26.9zm41.12 -8.24l-20.38 0 0 35.13 20.58 0 0 -5.03 -13.87 0 0 -10.32 11.28 0 0 -4.98 -11.28 0 0 -9.81 12.96 0 0.71 -4.98zm28.05 0l-21.5 0 0 35.13 6.71 0 0 -29.69 13.98 0 0.81 -5.44zm10.98 -0.76c-4.68,0 -7.78,1.42 -10.62,3.81l3.3 3.86c2.24,-1.73 4.07,-2.54 6.97,-2.54 3.81,0 6.61,2.64 6.96,10.22l-12.66 0 0 4.98 12.66 0c-0.25,7.73 -2.95,11.03 -7.63,11.03 -3.05,0 -4.88,-1.02 -6.81,-2.54l-3.15 3.86c2.39,2.29 5.54,3.96 10.32,3.96 8.84,0 14.23,-6.46 14.23,-18.56 0,-12.76 -5.49,-18.1 -13.57,-18.1zm57.94 30.61l0 -29.85 -6.76 0 0 29.8 -11.89 0 0 -29.8 -6.71 0 0 35.13 23.68 0 0.86 8.03 4.88 0 0 -13.32 -4.07 0zm30.9 -8.8c0,-8.49 -4.32,-13.58 -11.84,-13.58 -7.62,0 -11.94,6.2 -11.94,14.39 0,8.49 4.47,14.03 12.81,14.03 4.07,0 7.32,-1.47 9.96,-3.61l-2.69 -3.71c-2.34,1.63 -4.32,2.39 -6.71,2.39 -3.56,0 -6.15,-1.78 -6.61,-7.27l16.87 0c0.05,-0.71 0.15,-1.78 0.15,-2.64zm-6.45 -1.58l-10.57 0c0.36,-5.34 2.29,-7.37 5.34,-7.37 3.66,0 5.24,2.64 5.24,7.07l0 0.3zm27.9 15.66l6.51 0 0 -26.9 -6.51 0 0 10.73 -9.1 0 0 -10.73 -6.51 0 0 26.9 6.51 0 0 -11.24 9.1 0 0 11.24zm34.1 -26.9l-23.53 0 0 4.98 8.33 0 0 21.91 6.51 0 0 -21.91 7.88 0 0.81 -4.98zm17.69 -0.76c-2.9,0 -5.74,1.27 -7.88,4.07l-0.36 -3.3 -5.69 0 0 37.98 6.5 -0.71 0 -12.56c1.68,1.98 4.02,2.95 6.76,2.95 6.81,0 10.62,-6.05 10.62,-14.29 0,-8.59 -2.95,-14.13 -9.96,-14.13zm-2.49 23.44c-2.03,0 -3.66,-0.92 -4.93,-2.8l0 -12.1c1.27,-2.08 3.2,-3.66 5.49,-3.66 3.25,0 5.08,2.49 5.08,9.31 0,6.51 -2.09,9.25 -5.64,9.25z"></path> </g> </g> </svg> 